<?xml version="1.0" encoding="iso-8859-1"?>
<!-- Generator: Adobe Illustrator 19.0.0, SVG Export Plug-In . SVG Version: 6.00 Build 0)  -->
<svg version="1.1" id="Capa_1" xmlns="http://www.w3.org/2000/svg" xmlns:xlink="http://www.w3.org/1999/xlink" x="0px" y="0px"
	 viewBox="0 0 507.694 507.694" style="enable-background:new 0 0 507.694 507.694;" xml:space="preserve">
<path style="fill:#FFFFFF;" d="M33.324,385.294L33.324,385.294c24.8,33.6,72.8,40.8,106.4,15.2l49.6-36.8l-90.4-121.6l-49.6,36.8
	C14.924,303.694,7.724,351.694,33.324,385.294z"/>
<path style="fill:#D3D7DA;" d="M94.124,383.694c-14.4,0-27.2-6.4-35.2-17.6c-14.4-19.2-10.4-47.2,8.8-61.6l24-18.4l52.8,70.4
	l-24,18.4C112.524,381.294,103.724,383.694,94.124,383.694L94.124,383.694z"/>
<path style="fill:#F16051;" d="M269.324,459.694l-92-87.2l-38.4,28c-4.8,3.2-9.6,6.4-14.4,8.8l93.6,88.8L269.324,459.694z"/>
<polygon style="fill:#FFFFFF;" points="98.924,242.094 189.324,363.694 370.924,307.694 204.524,84.494 "/>
<polygon style="fill:#2EA2DB;" points="138.124,240.494 205.324,139.694 318.124,290.094 201.324,326.094 "/>
<path style="fill:#FFFFFF;" d="M406.124,313.294l-3.2,2.4c-8.8,6.4-21.6,4.8-28.8-4l-172.8-232c-6.4-8.8-4.8-21.6,4-28.8l3.2-2.4
	c8.8-6.4,21.6-4.8,28.8,4l172.8,232C416.524,294.094,414.924,306.894,406.124,313.294z"/>
<path style="fill:#FDBF5E;" d="M298.124,134.894l51.2,68.8c19.2-14.4,23.2-40.8,8.8-60S317.324,120.494,298.124,134.894z"/>
<g>
	<path style="fill:#193651;" d="M416.524,280.494l-56-76c16.8-17.6,19.2-45.6,4.8-65.6c-9.6-12.8-24.8-20.8-40.8-20.8
		c-8,0-16,2.4-23.2,5.6l-56-75.2c-5.6-7.2-13.6-11.2-22.4-11.2c-6.4,0-12,1.6-16.8,5.6l-3.2,2.4c-12.8,9.6-15.2,27.2-6.4,39.2
		l-101.6,152l-48.8,36c-17.6,13.6-29.6,32.8-32.8,55.2c-5.6,22.4,0,44.8,13.6,62.4c16,20.8,40.8,33.6,67.2,33.6l0,0
		c10.4,0,20-1.6,28.8-5.6l94.4,89.6l64-48l-91.2-86.4l3.2-2.4l174.4-54.4c5.6,7.2,13.6,11.2,22.4,11.2c6.4,0,12-1.6,16.8-5.6
		l3.2-2.4C422.924,310.094,426.124,292.494,416.524,280.494z M323.724,134.094c11.2,0,21.6,4.8,28,14.4c9.6,13.6,8.8,31.2-1.6,43.2
		l-40.8-54.4C314.124,134.894,318.924,134.094,323.724,134.094z M123.724,401.294c-8.8,4-19.2,6.4-29.6,6.4l0,0
		c-21.6,0-41.6-9.6-54.4-27.2c-11.2-14.4-15.2-32.8-12.8-50.4s12-33.6,26.4-44.8l43.2-32.8l81.6,108.8l0,0l0,0
		c0,0-48.8,36-51.2,37.6C125.324,399.694,124.524,400.494,123.724,401.294z M257.324,458.894l-38.4,28.8l-80.8-76
		c1.6-0.8,3.2-2.4,5.6-4c0,0,0,0,0.8,0l16-12l16.8-12L257.324,458.894z M192.524,354.094l-84-112.8l96-143.2l152.8,204.8
		L192.524,354.094z M401.324,306.894l-4,2.4c-5.6,4-13.6,2.4-17.6-2.4l-172.8-232c-3.2-4.8-2.4-12.8,3.2-16.8l3.2-3.2
		c2.4-1.6,4.8-2.4,7.2-2.4c4,0,7.2,1.6,9.6,4.8l172.8,232C407.724,294.894,406.924,302.894,401.324,306.894z"/>
	<rect x="407.722" y="154.092" style="fill:#193651;" width="88.8" height="16"/>
	
		<rect x="372.833" y="95.146" transform="matrix(-0.8021 0.5972 -0.5972 -0.8021 797.6335 -58.0363)" style="fill:#193651;" width="71.2" height="16"/>
	
		<rect x="356.482" y="0.438" transform="matrix(0.9585 0.2851 -0.2851 0.9585 27.9101 -102.0527)" style="fill:#193651;" width="16" height="88.8"/>
	
		<rect x="197.695" y="192.28" transform="matrix(-0.6347 -0.7728 0.7728 -0.6347 181.4739 486.3499)" style="fill:#193651;" width="16.001" height="16.001"/>
	
		<rect x="222.171" y="226.329" transform="matrix(-0.6346 -0.7728 0.7728 -0.6346 195.1461 560.9189)" style="fill:#193651;" width="15.998" height="15.998"/>
	
		<rect x="246.7" y="259.473" transform="matrix(0.7729 -0.6346 0.6346 0.7729 -111.8791 222.378)" style="fill:#193651;" width="16.001" height="16.001"/>
</g>
<g>
</g>
<g>
</g>
<g>
</g>
<g>
</g>
<g>
</g>
<g>
</g>
<g>
</g>
<g>
</g>
<g>
</g>
<g>
</g>
<g>
</g>
<g>
</g>
<g>
</g>
<g>
</g>
<g>
</g>
</svg>
